<svg xmlns="http://www.w3.org/2000/svg" width="1200" height="800" viewBox="0 0 1200 800">
  <defs>
    <linearGradient id="bg6" x1="0%" y1="0%" x2="100%" y2="0%">
      <stop offset="0%" style="stop-color:#F4EDDE"/>
      <stop offset="50%" style="stop-color:#F0E8D5"/>
      <stop offset="100%" style="stop-color:#EBE0CA"/>
    </linearGradient>
  </defs>
  <rect width="1200" height="800" fill="url(#bg6)"/>
  <!-- Hexagonal pattern -->
  <polygon points="300,200 350,170 400,200 400,260 350,290 300,260" fill="none" stroke="#cbfb78" stroke-width="1.5" opacity="0.2"/>
  <polygon points="400,200 450,170 500,200 500,260 450,290 400,260" fill="none" stroke="#cbfb78" stroke-width="1.5" opacity="0.18"/>
  <polygon points="350,290 400,260 450,290 450,350 400,380 350,350" fill="none" stroke="#cbfb78" stroke-width="1.5" opacity="0.15"/>
  <!-- Mirror hexagons bottom right -->
  <polygon points="800,540 850,510 900,540 900,600 850,630 800,600" fill="none" stroke="#cbfb78" stroke-width="1.5" opacity="0.2"/>
  <polygon points="700,540 750,510 800,540 800,600 750,630 700,600" fill="none" stroke="#cbfb78" stroke-width="1.5" opacity="0.18"/>
  <polygon points="750,630 800,600 850,630 850,690 800,720 750,690" fill="none" stroke="#cbfb78" stroke-width="1.5" opacity="0.15"/>
  <!-- Cross pattern -->
  <line x1="580" y1="200" x2="620" y2="200" stroke="#333333" stroke-width="1" opacity="0.1"/>
  <line x1="600" y1="180" x2="600" y2="220" stroke="#333333" stroke-width="1" opacity="0.1"/>
  <line x1="580" y1="600" x2="620" y2="600" stroke="#333333" stroke-width="1" opacity="0.1"/>
  <line x1="600" y1="580" x2="600" y2="620" stroke="#333333" stroke-width="1" opacity="0.1"/>
  <!-- Corner L shapes -->
  <path d="M60,60 L60,130 M60,60 L130,60" fill="none" stroke="#cbfb78" stroke-width="2.5" opacity="0.35"/>
  <path d="M1140,740 L1140,670 M1140,740 L1070,740" fill="none" stroke="#cbfb78" stroke-width="2.5" opacity="0.35"/>
  <!-- Scattered dots -->
  <circle cx="180" cy="500" r="2.5" fill="#333333" opacity="0.1"/>
  <circle cx="220" cy="520" r="2.5" fill="#333333" opacity="0.08"/>
  <circle cx="200" cy="540" r="2.5" fill="#333333" opacity="0.1"/>
  <circle cx="1000" cy="280" r="2.5" fill="#333333" opacity="0.1"/>
  <circle cx="1040" cy="300" r="2.5" fill="#333333" opacity="0.08"/>
  <circle cx="1020" cy="260" r="2.5" fill="#333333" opacity="0.1"/>
  <!-- Number -->
  <text x="600" y="420" font-family="Georgia, serif" font-size="180" fill="#333333" text-anchor="middle" opacity="0.12">06</text>
  <text x="600" y="480" font-family="Georgia, serif" font-size="24" fill="#333333" text-anchor="middle" opacity="0.25">Project</text>
</svg>