<svg xmlns="http://www.w3.org/2000/svg" width="1200" height="800" viewBox="0 0 1200 800">
  <defs>
    <linearGradient id="bg2" x1="0%" y1="0%" x2="100%" y2="100%">
      <stop offset="0%" style="stop-color:#F4EDDE"/>
      <stop offset="100%" style="stop-color:#F0E6D2"/>
    </linearGradient>
  </defs>
  <rect width="1200" height="800" fill="url(#bg2)"/>
  <!-- Concentric circles -->
  <circle cx="600" cy="400" r="350" fill="none" stroke="#cbfb78" stroke-width="1" opacity="0.15"/>
  <circle cx="600" cy="400" r="300" fill="none" stroke="#cbfb78" stroke-width="1" opacity="0.2"/>
  <circle cx="600" cy="400" r="250" fill="none" stroke="#cbfb78" stroke-width="1.5" opacity="0.25"/>
  <circle cx="600" cy="400" r="200" fill="none" stroke="#cbfb78" stroke-width="1.5" opacity="0.3"/>
  <circle cx="600" cy="400" r="150" fill="none" stroke="#cbfb78" stroke-width="2" opacity="0.2"/>
  <circle cx="600" cy="400" r="100" fill="none" stroke="#cbfb78" stroke-width="2" opacity="0.15"/>
  <!-- Dot grid -->
  <circle cx="100" cy="100" r="3" fill="#333333" opacity="0.08"/>
  <circle cx="200" cy="100" r="3" fill="#333333" opacity="0.08"/>
  <circle cx="300" cy="100" r="3" fill="#333333" opacity="0.08"/>
  <circle cx="100" cy="200" r="3" fill="#333333" opacity="0.08"/>
  <circle cx="200" cy="200" r="3" fill="#333333" opacity="0.08"/>
  <circle cx="300" cy="200" r="3" fill="#333333" opacity="0.08"/>
  <circle cx="100" cy="300" r="3" fill="#333333" opacity="0.08"/>
  <circle cx="200" cy="300" r="3" fill="#333333" opacity="0.08"/>
  <circle cx="900" cy="600" r="3" fill="#333333" opacity="0.08"/>
  <circle cx="1000" cy="600" r="3" fill="#333333" opacity="0.08"/>
  <circle cx="1100" cy="600" r="3" fill="#333333" opacity="0.08"/>
  <circle cx="900" cy="700" r="3" fill="#333333" opacity="0.08"/>
  <circle cx="1000" cy="700" r="3" fill="#333333" opacity="0.08"/>
  <circle cx="1100" cy="700" r="3" fill="#333333" opacity="0.08"/>
  <!-- Horizontal accent lines -->
  <line x1="80" y1="680" x2="280" y2="680" stroke="#cbfb78" stroke-width="2" opacity="0.4"/>
  <line x1="920" y1="120" x2="1120" y2="120" stroke="#cbfb78" stroke-width="2" opacity="0.4"/>
  <!-- Number -->
  <text x="600" y="420" font-family="Georgia, serif" font-size="180" fill="#333333" text-anchor="middle" opacity="0.12">02</text>
  <text x="600" y="480" font-family="Georgia, serif" font-size="24" fill="#333333" text-anchor="middle" opacity="0.25">Project</text>
</svg>