<svg xmlns="http://www.w3.org/2000/svg" width="1200" height="800" viewBox="0 0 1200 800">
  <defs>
    <linearGradient id="bg5" x1="50%" y1="0%" x2="50%" y2="100%">
      <stop offset="0%" style="stop-color:#F4EDDE"/>
      <stop offset="100%" style="stop-color:#ECE1CB"/>
    </linearGradient>
  </defs>
  <rect width="1200" height="800" fill="url(#bg5)"/>
  <!-- Wavy horizontal lines -->
  <path d="M0,150 Q150,120 300,150 Q450,180 600,150 Q750,120 900,150 Q1050,180 1200,150" fill="none" stroke="#cbfb78" stroke-width="1.5" opacity="0.2"/>
  <path d="M0,250 Q150,220 300,250 Q450,280 600,250 Q750,220 900,250 Q1050,280 1200,250" fill="none" stroke="#cbfb78" stroke-width="1.5" opacity="0.18"/>
  <path d="M0,350 Q150,320 300,350 Q450,380 600,350 Q750,320 900,350 Q1050,380 1200,350" fill="none" stroke="#cbfb78" stroke-width="1" opacity="0.15"/>
  <path d="M0,450 Q150,420 300,450 Q450,480 600,450 Q750,420 900,450 Q1050,480 1200,450" fill="none" stroke="#cbfb78" stroke-width="1" opacity="0.15"/>
  <path d="M0,550 Q150,520 300,550 Q450,580 600,550 Q750,520 900,550 Q1050,580 1200,550" fill="none" stroke="#cbfb78" stroke-width="1.5" opacity="0.18"/>
  <path d="M0,650 Q150,620 300,650 Q450,680 600,650 Q750,620 900,650 Q1050,680 1200,650" fill="none" stroke="#cbfb78" stroke-width="1.5" opacity="0.2"/>
  <!-- Floating circles -->
  <circle cx="150" cy="150" r="30" fill="#cbfb78" opacity="0.08"/>
  <circle cx="1050" cy="650" r="45" fill="#cbfb78" opacity="0.1"/>
  <circle cx="950" cy="150" r="20" fill="#cbfb78" opacity="0.06"/>
  <circle cx="250" cy="650" r="25" fill="#cbfb78" opacity="0.07"/>
  <!-- Accent bars -->
  <rect x="80" y="720" width="80" height="4" fill="#cbfb78" opacity="0.4"/>
  <rect x="1040" y="76" width="80" height="4" fill="#cbfb78" opacity="0.4"/>
  <!-- Number -->
  <text x="600" y="420" font-family="Georgia, serif" font-size="180" fill="#333333" text-anchor="middle" opacity="0.12">05</text>
  <text x="600" y="480" font-family="Georgia, serif" font-size="24" fill="#333333" text-anchor="middle" opacity="0.25">Project</text>
</svg>